# xmcd CD database file
#
# Track frame offsets:
#	150
#	16050
#	39201
#	56433
#	79385
#	102201
#	119482
#	133128
#	153228
#	171258
#	188920
#	209385
#	231533
#	247773
#
# Disc length: 3561 seconds
#
# Revision: 1
# Processed by: cddbd v1.5PL3 Copyright (c) Steve Scherf et al.
# Submitted via: CDex 1.50beta9
#
DISCID=b60de70e
DTITLE=Various Artist - 寝待月の宴
DYEAR=2002
DGENRE=Vocal
TTITLE0=TAKAKO コメート&プリンセア - ハートの風車
TTITLE1=浅香春子 - ステンドグラスの恋
TTITLE2=TAKAKO - Heart Of Prism
TTITLE3=浅香春子 - 空の果て
TTITLE4=TAKAKO - Moonlight Cathedral
TTITLE5=藤井恵美 - 二人の小さな未来(ゆめ)
TTITLE6=桃井はるこ from under17 - 最初と最後のマジック
TTITLE7=かないみか -パンドラの夢
TTITLE8=みとせのりこ - 玩具箱の未来
TTITLE9=TAKAKO - Endless Loop
TTITLE10=みとせのりこ - 鳥のように抱いて
TTITLE11=みとせのりこ - 楽園のゆりかご
TTITLE12=桃井はるこ from under17 - ラブけろぱにっく!
TTITLE13=SAKKO - 放課後のパティシエ
EXTD=YEAR: 2002
EXTT0=
EXTT1=
EXTT2=
EXTT3=
EXTT4=
EXTT5=
EXTT6=
EXTT7=
EXTT8=
EXTT9=
EXTT10=
EXTT11=
EXTT12=
EXTT13=
PLAYORDER=
